# xmcd CD database file
#
# Track frame offsets:
#	150
#	20108
#	43056
#	58351
#	79249
#	97816
#	115760
#	134533
#	153067
#	171771
#	190297
#	213349
#	236248
#	257378
#	277093
#	296434
#	311882
#	333824
#
# Disc length: 4683 seconds
#
# Revision: 0
# Processed by: cddbd v1.5.2PL0 Copyright (c) Steve Scherf et al.
# Submitted via: CDex 1.70beta2
#
DISCID=08124912
DTITLE=Kenny G - Kenny G 3
DYEAR=2008
DGENRE=Jazz
TTITLE0=01 The joy of life
TTITLE1=02 - Songbird
TTITLE2=03 Loving You
TTITLE3=04 Dont Know Why (Ft - David Benoi
TTITLE4=05 You Send Me - With Michael Bolt
TTITLE5=06 Sorry Seems To Be The Hardest
TTITLE6=07 Don't Make Me Wait For Love
TTITLE7=08 Theme From Dying Young
TTITLE8=09 Asian Dream
TTITLE9=10 Alfie (Ft. Burt Bacharach)
TTITLE10=11 In The Rain
TTITLE11=12 - Breathless
TTITLE12=13 Romantic Saxophone
TTITLE13=14 - Sentimental
TTITLE14=15 - Tradewinds
TTITLE15=16 The Wedding Song
TTITLE16=17 waiting for you
TTITLE17=18 Careless Whisper (Ft. Brian Mc
EXTD=YEAR: 2008
EXTT0=
EXTT1=
EXTT2=
EXTT3=
EXTT4=
EXTT5=
EXTT6=
EXTT7=
EXTT8=
EXTT9=
EXTT10=
EXTT11=
EXTT12=
EXTT13=
EXTT14=
EXTT15=
EXTT16=
EXTT17=
PLAYORDER=
